<svg width="98" height="80" viewBox="0 0 98 80" fill="none" xmlns="http://www.w3.org/2000/svg">
<path d="M0.476 12L4.116 1.878H5.957L9.59 12H7.882L6.979 9.459H3.115L2.191 12H0.476ZM3.507 7.947H6.559L5.04 3.537L3.507 7.947ZM13.1145 12.105C12.6478 12.105 12.2745 12.0467 11.9945 11.93C11.7145 11.8133 11.5045 11.657 11.3645 11.461C11.2245 11.265 11.1335 11.0457 11.0915 10.803C11.0495 10.5557 11.0285 10.3037 11.0285 10.047V1.598H12.6945V9.851C12.6945 10.1637 12.7575 10.4063 12.8835 10.579C13.0142 10.7517 13.2242 10.852 13.5135 10.88L13.8775 10.894V11.965C13.7515 12.0023 13.6232 12.035 13.4925 12.063C13.3618 12.091 13.2358 12.105 13.1145 12.105ZM17.2844 12.105C16.8178 12.105 16.4444 12.0467 16.1644 11.93C15.8844 11.8133 15.6744 11.657 15.5344 11.461C15.3944 11.265 15.3034 11.0457 15.2614 10.803C15.2194 10.5557 15.1984 10.3037 15.1984 10.047V1.598H16.8644V9.851C16.8644 10.1637 16.9274 10.4063 17.0534 10.579C17.1841 10.7517 17.3941 10.852 17.6834 10.88L18.0474 10.894V11.965C17.9214 12.0023 17.7931 12.035 17.6624 12.063C17.5318 12.091 17.4058 12.105 17.2844 12.105ZM22.9223 1.878C22.9643 1.878 23.0879 1.878 23.2933 1.878C23.4986 1.878 23.7413 1.878 24.0213 1.878C24.3059 1.878 24.5929 1.88033 24.8823 1.885C25.1763 1.885 25.4306 1.88733 25.6453 1.892C26.8773 1.91533 27.8783 2.12767 28.6483 2.529C29.4229 2.92567 29.9899 3.49267 30.3493 4.23C30.7133 4.96267 30.8953 5.847 30.8953 6.883C30.8953 7.96567 30.7016 8.88733 30.3143 9.648C29.9316 10.4087 29.3436 10.992 28.5503 11.398C27.7616 11.7993 26.7583 12 25.5403 12H22.9223V1.878ZM24.6513 3.285V10.593H25.5683C26.2636 10.593 26.8773 10.474 27.4093 10.236C27.9413 9.99333 28.3566 9.60133 28.6553 9.06C28.9586 8.51867 29.1103 7.79533 29.1103 6.89C29.1103 6.01267 28.9703 5.31033 28.6903 4.783C28.4103 4.25567 28.0089 3.87533 27.4863 3.642C26.9636 3.404 26.3383 3.285 25.6103 3.285H24.6513ZM33.9124 8.773C33.9077 9.18367 33.973 9.54767 34.1084 9.865C34.2437 10.1823 34.4444 10.432 34.7104 10.614C34.9764 10.7913 35.3054 10.88 35.6974 10.88C36.0987 10.88 36.4464 10.7913 36.7404 10.614C37.039 10.432 37.2374 10.1567 37.3354 9.788H38.8964C38.8124 10.292 38.6117 10.719 38.2944 11.069C37.977 11.419 37.592 11.685 37.1394 11.867C36.6914 12.049 36.2247 12.14 35.7394 12.14C35.0394 12.14 34.4234 11.993 33.8914 11.699C33.364 11.4003 32.951 10.9757 32.6524 10.425C32.3584 9.87433 32.2114 9.21867 32.2114 8.458C32.2114 7.716 32.3467 7.058 32.6174 6.484C32.888 5.90533 33.2777 5.45033 33.7864 5.119C34.2997 4.78767 34.9157 4.622 35.6344 4.622C36.3484 4.622 36.948 4.77367 37.4334 5.077C37.9234 5.38033 38.292 5.805 38.5394 6.351C38.7914 6.89233 38.9174 7.527 38.9174 8.255V8.773H33.9124ZM33.9124 7.716H37.3074C37.3074 7.366 37.2467 7.051 37.1254 6.771C37.004 6.48633 36.8174 6.26233 36.5654 6.099C36.318 5.931 36.0054 5.847 35.6274 5.847C35.254 5.847 34.939 5.938 34.6824 6.12C34.4257 6.302 34.232 6.53767 34.1014 6.827C33.9707 7.11167 33.9077 7.408 33.9124 7.716ZM43.2007 12.14C42.6967 12.14 42.2184 12.0607 41.7657 11.902C41.3177 11.7387 40.9397 11.4843 40.6317 11.139C40.3284 10.7937 40.1371 10.348 40.0577 9.802H41.5557C41.6211 10.068 41.7354 10.285 41.8987 10.453C42.0667 10.621 42.2651 10.7447 42.4937 10.824C42.7224 10.8987 42.9557 10.936 43.1937 10.936C43.6277 10.936 43.9777 10.8613 44.2437 10.712C44.5144 10.5627 44.6497 10.3317 44.6497 10.019C44.6497 9.79033 44.5751 9.60833 44.4257 9.473C44.2764 9.33767 44.0384 9.235 43.7117 9.165L42.3327 8.85C41.7214 8.71467 41.2291 8.49067 40.8557 8.178C40.4871 7.86533 40.3004 7.42433 40.2957 6.855C40.2911 6.42567 40.3984 6.043 40.6177 5.707C40.8371 5.371 41.1637 5.10733 41.5977 4.916C42.0317 4.72 42.5684 4.622 43.2077 4.622C44.0524 4.622 44.7291 4.811 45.2377 5.189C45.7464 5.56233 46.0077 6.09667 46.0217 6.792H44.5727C44.5214 6.47933 44.3744 6.23667 44.1317 6.064C43.8891 5.88667 43.5741 5.798 43.1867 5.798C42.7854 5.798 42.4564 5.875 42.1997 6.029C41.9431 6.183 41.8147 6.41867 41.8147 6.736C41.8147 6.95533 41.9127 7.128 42.1087 7.254C42.3047 7.38 42.5987 7.48733 42.9907 7.576L44.2927 7.891C44.6661 7.98433 44.9717 8.11033 45.2097 8.269C45.4477 8.42767 45.6344 8.60267 45.7697 8.794C45.9051 8.98067 45.9984 9.17433 46.0497 9.375C46.1057 9.571 46.1337 9.753 46.1337 9.921C46.1337 10.3877 46.0124 10.7867 45.7697 11.118C45.5317 11.4447 45.1934 11.6967 44.7547 11.874C44.3161 12.0513 43.7981 12.14 43.2007 12.14ZM49.4945 4.762V12H47.8565V4.762H49.4945ZM49.5155 1.885V3.495H47.8285V1.885H49.5155ZM51.6203 12V4.762H53.2863V5.798C53.3983 5.61133 53.55 5.43167 53.7413 5.259C53.9373 5.08633 54.1776 4.94633 54.4623 4.839C54.747 4.73167 55.0806 4.678 55.4633 4.678C55.9113 4.678 56.3266 4.76667 56.7093 4.944C57.0966 5.12133 57.407 5.399 57.6403 5.777C57.8783 6.155 57.9973 6.64267 57.9973 7.24V12H56.2893V7.443C56.2893 6.967 56.1586 6.61467 55.8973 6.386C55.636 6.15267 55.307 6.036 54.9103 6.036C54.6396 6.036 54.383 6.08267 54.1403 6.176C53.8976 6.26467 53.6993 6.40233 53.5453 6.589C53.396 6.771 53.3213 6.99967 53.3213 7.275V12H51.6203ZM63.0364 14.394C61.8184 14.394 60.8828 14.2307 60.2294 13.904C59.5761 13.5773 59.2494 13.1293 59.2494 12.56C59.2494 12.3033 59.3124 12.0887 59.4384 11.916C59.5644 11.7433 59.7138 11.601 59.8864 11.489C60.0591 11.377 60.2178 11.2907 60.3624 11.23C60.5071 11.1693 60.6004 11.125 60.6424 11.097C60.5631 11.0503 60.4581 10.9897 60.3274 10.915C60.1968 10.8403 60.0778 10.7377 59.9704 10.607C59.8678 10.4763 59.8164 10.306 59.8164 10.096C59.8164 9.85333 59.9308 9.62933 60.1594 9.424C60.3928 9.21867 60.7404 9.07167 61.2024 8.983C60.7498 8.76367 60.4021 8.46733 60.1594 8.094C59.9168 7.72067 59.7954 7.33333 59.7954 6.932C59.7954 6.456 59.9331 6.04767 60.2084 5.707C60.4884 5.36633 60.8758 5.105 61.3704 4.923C61.8698 4.741 62.4461 4.65 63.0994 4.65C63.5848 4.65 63.9861 4.70367 64.3034 4.811C64.6208 4.91833 64.9171 5.063 65.1924 5.245C65.2858 5.20767 65.4164 5.15633 65.5844 5.091C65.7571 5.021 65.9438 4.94633 66.1444 4.867C66.3451 4.783 66.5364 4.70367 66.7184 4.629C66.9051 4.54967 67.0638 4.48433 67.1944 4.433L67.1804 5.84L65.9274 6.064C65.9881 6.19933 66.0348 6.34633 66.0674 6.505C66.1048 6.66367 66.1234 6.80367 66.1234 6.925C66.1234 7.345 66.0044 7.73467 65.7664 8.094C65.5331 8.44867 65.1808 8.73333 64.7094 8.948C64.2428 9.16267 63.6594 9.27 62.9594 9.27C62.8894 9.27 62.7938 9.26767 62.6724 9.263C62.5511 9.25833 62.4531 9.25367 62.3784 9.249C62.0004 9.263 61.7414 9.30733 61.6014 9.382C61.4614 9.45667 61.3914 9.53833 61.3914 9.627C61.3914 9.753 61.4964 9.837 61.7064 9.879C61.9164 9.921 62.2524 9.95833 62.7144 9.991C62.8778 10.0003 63.0924 10.012 63.3584 10.026C63.6244 10.04 63.9208 10.0587 64.2474 10.082C65.0734 10.1333 65.6988 10.341 66.1234 10.705C66.5481 11.0643 66.7604 11.531 66.7604 12.105C66.7604 12.7723 66.4524 13.3207 65.8364 13.75C65.2204 14.1793 64.2871 14.394 63.0364 14.394ZM63.3234 13.393C63.9348 13.393 64.3874 13.309 64.6814 13.141C64.9754 12.973 65.1224 12.7257 65.1224 12.399C65.1224 12.147 65.0221 11.9417 64.8214 11.783C64.6208 11.6243 64.3221 11.531 63.9254 11.503L62.0984 11.391C61.8978 11.377 61.7064 11.4143 61.5244 11.503C61.3471 11.587 61.2024 11.706 61.0904 11.86C60.9784 12.0093 60.9224 12.175 60.9224 12.357C60.9224 12.6977 61.1184 12.9543 61.5104 13.127C61.9024 13.3043 62.5068 13.393 63.3234 13.393ZM63.0154 8.269C63.4588 8.269 63.8181 8.157 64.0934 7.933C64.3688 7.70433 64.5064 7.38233 64.5064 6.967C64.5064 6.53767 64.3688 6.204 64.0934 5.966C63.8181 5.72333 63.4588 5.602 63.0154 5.602C62.5628 5.602 62.1964 5.72333 61.9164 5.966C61.6411 6.20867 61.5034 6.54233 61.5034 6.967C61.5034 7.36833 61.6364 7.68567 61.9024 7.919C62.1684 8.15233 62.5394 8.269 63.0154 8.269ZM68.5598 12V4.762H70.2258V5.798C70.3378 5.61133 70.4894 5.43167 70.6808 5.259C70.8768 5.08633 71.1171 4.94633 71.4018 4.839C71.6864 4.73167 72.0201 4.678 72.4028 4.678C72.8508 4.678 73.2661 4.76667 73.6488 4.944C74.0361 5.12133 74.3464 5.399 74.5798 5.777C74.8178 6.155 74.9368 6.64267 74.9368 7.24V12H73.2288V7.443C73.2288 6.967 73.0981 6.61467 72.8368 6.386C72.5754 6.15267 72.2464 6.036 71.8498 6.036C71.5791 6.036 71.3224 6.08267 71.0798 6.176C70.8371 6.26467 70.6388 6.40233 70.4848 6.589C70.3354 6.771 70.2608 6.99967 70.2608 7.275V12H68.5598ZM78.0999 8.773C78.0952 9.18367 78.1605 9.54767 78.2959 9.865C78.4312 10.1823 78.6319 10.432 78.8979 10.614C79.1639 10.7913 79.4929 10.88 79.8849 10.88C80.2862 10.88 80.6339 10.7913 80.9279 10.614C81.2265 10.432 81.4249 10.1567 81.5229 9.788H83.0839C82.9999 10.292 82.7992 10.719 82.4819 11.069C82.1645 11.419 81.7795 11.685 81.3269 11.867C80.8789 12.049 80.4122 12.14 79.9269 12.14C79.2269 12.14 78.6109 11.993 78.0789 11.699C77.5515 11.4003 77.1385 10.9757 76.8399 10.425C76.5459 9.87433 76.3989 9.21867 76.3989 8.458C76.3989 7.716 76.5342 7.058 76.8049 6.484C77.0755 5.90533 77.4652 5.45033 77.9739 5.119C78.4872 4.78767 79.1032 4.622 79.8219 4.622C80.5359 4.622 81.1355 4.77367 81.6209 5.077C82.1109 5.38033 82.4795 5.805 82.7269 6.351C82.9789 6.89233 83.1049 7.527 83.1049 8.255V8.773H78.0999ZM78.0999 7.716H81.4949C81.4949 7.366 81.4342 7.051 81.3129 6.771C81.1915 6.48633 81.0049 6.26233 80.7529 6.099C80.5055 5.931 80.1929 5.847 79.8149 5.847C79.4415 5.847 79.1265 5.938 78.8699 6.12C78.6132 6.302 78.4195 6.53767 78.2889 6.827C78.1582 7.11167 78.0952 7.408 78.0999 7.716ZM84.6926 12V4.762H86.3236V6.33C86.4402 5.97067 86.6059 5.665 86.8206 5.413C87.0399 5.15633 87.2966 4.96033 87.5906 4.825C87.8846 4.68967 88.2042 4.622 88.5496 4.622C88.6336 4.622 88.7152 4.62667 88.7946 4.636C88.8739 4.64533 88.9322 4.66167 88.9696 4.685V6.316C88.9182 6.29267 88.8506 6.27633 88.7666 6.267C88.6872 6.25767 88.6172 6.253 88.5566 6.253C88.2066 6.225 87.8962 6.239 87.6256 6.295C87.3596 6.351 87.1332 6.44667 86.9466 6.582C86.7646 6.71267 86.6269 6.88067 86.5336 7.086C86.4402 7.28667 86.3936 7.52233 86.3936 7.793V12H84.6926ZM92.9663 12.14C92.4623 12.14 91.984 12.0607 91.5313 11.902C91.0833 11.7387 90.7053 11.4843 90.3973 11.139C90.094 10.7937 89.9027 10.348 89.8233 9.802H91.3213C91.3867 10.068 91.501 10.285 91.6643 10.453C91.8323 10.621 92.0307 10.7447 92.2593 10.824C92.488 10.8987 92.7213 10.936 92.9593 10.936C93.3933 10.936 93.7433 10.8613 94.0093 10.712C94.28 10.5627 94.4153 10.3317 94.4153 10.019C94.4153 9.79033 94.3407 9.60833 94.1913 9.473C94.042 9.33767 93.804 9.235 93.4773 9.165L92.0983 8.85C91.487 8.71467 90.9947 8.49067 90.6213 8.178C90.2527 7.86533 90.066 7.42433 90.0613 6.855C90.0567 6.42567 90.164 6.043 90.3833 5.707C90.6027 5.371 90.9293 5.10733 91.3633 4.916C91.7973 4.72 92.334 4.622 92.9733 4.622C93.818 4.622 94.4947 4.811 95.0033 5.189C95.512 5.56233 95.7733 6.09667 95.7873 6.792H94.3383C94.287 6.47933 94.14 6.23667 93.8973 6.064C93.6547 5.88667 93.3397 5.798 92.9523 5.798C92.551 5.798 92.222 5.875 91.9653 6.029C91.7087 6.183 91.5803 6.41867 91.5803 6.736C91.5803 6.95533 91.6783 7.128 91.8743 7.254C92.0703 7.38 92.3643 7.48733 92.7563 7.576L94.0583 7.891C94.4317 7.98433 94.7373 8.11033 94.9753 8.269C95.2133 8.42767 95.4 8.60267 95.5353 8.794C95.6707 8.98067 95.764 9.17433 95.8153 9.375C95.8713 9.571 95.8993 9.753 95.8993 9.921C95.8993 10.3877 95.778 10.7867 95.5353 11.118C95.2973 11.4447 94.959 11.6967 94.5203 11.874C94.0817 12.0513 93.5637 12.14 92.9663 12.14Z" fill="#152427"/>
<path opacity="0.4" d="M0.23 24.62V23.77H5.7V24.62H3.495V31H2.565V24.62H0.23ZM8.06414 31.1C7.58747 31.1 7.17081 30.9983 6.81414 30.795C6.45747 30.5883 6.18081 30.2867 5.98414 29.89C5.78747 29.4933 5.68914 29.0083 5.68914 28.435C5.68914 27.895 5.78081 27.4217 5.96414 27.015C6.14747 26.6083 6.41581 26.2933 6.76914 26.07C7.12581 25.8433 7.55747 25.73 8.06414 25.73C8.54081 25.73 8.95414 25.835 9.30414 26.045C9.65747 26.2517 9.93081 26.5567 10.1241 26.96C10.3175 27.3633 10.4141 27.855 10.4141 28.435C10.4141 28.9617 10.3241 29.425 10.1441 29.825C9.96747 30.225 9.70414 30.5383 9.35414 30.765C9.00747 30.9883 8.57747 31.1 8.06414 31.1ZM8.06414 30.37C8.37414 30.37 8.63581 30.2917 8.84914 30.135C9.06247 29.9783 9.22414 29.7533 9.33414 29.46C9.44414 29.1667 9.49914 28.8183 9.49914 28.415C9.49914 28.045 9.45081 27.7133 9.35414 27.42C9.25747 27.1233 9.10247 26.8883 8.88914 26.715C8.67914 26.5417 8.40414 26.455 8.06414 26.455C7.75081 26.455 7.48581 26.5333 7.26914 26.69C7.05247 26.8433 6.88747 27.0667 6.77414 27.36C6.66414 27.6533 6.60914 28.005 6.60914 28.415C6.60914 28.7783 6.65914 29.1083 6.75914 29.405C6.85914 29.7017 7.01581 29.9367 7.22914 30.11C7.44247 30.2833 7.72081 30.37 8.06414 30.37ZM14.085 26.505H12.92V29.72C12.92 29.9033 12.9383 30.0383 12.975 30.125C13.015 30.2083 13.08 30.2617 13.17 30.285C13.2633 30.3083 13.39 30.32 13.55 30.32H14.115V30.94C14.0517 30.9633 13.955 30.9833 13.825 31C13.6983 31.0167 13.54 31.025 13.35 31.025C12.9933 31.025 12.7167 30.9767 12.52 30.88C12.3233 30.7833 12.185 30.64 12.105 30.45C12.0283 30.26 11.99 30.0267 11.99 29.75V26.505H11.15V25.83H12.015L12.24 24.325H12.92V25.825H14.085V26.505ZM16.8141 31.1C16.4808 31.1 16.1858 31.0417 15.9291 30.925C15.6725 30.805 15.4708 30.6333 15.3241 30.41C15.1808 30.1867 15.1091 29.9167 15.1091 29.6C15.1091 29.0267 15.3091 28.6 15.7091 28.32C16.1091 28.04 16.7508 27.89 17.6341 27.87L18.5591 27.845V27.44C18.5591 27.1233 18.4641 26.8733 18.2741 26.69C18.0841 26.5033 17.7891 26.41 17.3891 26.41C17.0925 26.4133 16.8308 26.4833 16.6041 26.62C16.3808 26.7567 16.2358 26.98 16.1691 27.29H15.3541C15.3741 26.9533 15.4691 26.67 15.6391 26.44C15.8091 26.2067 16.0458 26.03 16.3491 25.91C16.6558 25.79 17.0175 25.73 17.4341 25.73C17.8841 25.73 18.2575 25.7933 18.5541 25.92C18.8541 26.0467 19.0775 26.2333 19.2241 26.48C19.3741 26.7267 19.4491 27.03 19.4491 27.39V31H18.6591L18.5941 30.03C18.3941 30.4333 18.1391 30.7133 17.8291 30.87C17.5225 31.0233 17.1841 31.1 16.8141 31.1ZM17.0941 30.435C17.2675 30.435 17.4391 30.4033 17.6091 30.34C17.7825 30.2767 17.9408 30.1917 18.0841 30.085C18.2275 29.975 18.3408 29.8533 18.4241 29.72C18.5108 29.5833 18.5558 29.4433 18.5591 29.3V28.415L17.7891 28.43C17.3958 28.4367 17.0658 28.4767 16.7991 28.55C16.5358 28.6233 16.3375 28.7383 16.2041 28.895C16.0741 29.0517 16.0091 29.2567 16.0091 29.51C16.0091 29.8 16.1091 30.0267 16.3091 30.19C16.5125 30.3533 16.7741 30.435 17.0941 30.435ZM22.3337 31.065C22.0537 31.065 21.827 31.0267 21.6537 30.95C21.4837 30.8733 21.352 30.77 21.2587 30.64C21.1687 30.51 21.107 30.3617 21.0737 30.195C21.0437 30.025 21.0287 29.85 21.0287 29.67V23.57H21.9387V29.58C21.9387 29.84 21.9887 30.035 22.0887 30.165C22.192 30.295 22.3353 30.3667 22.5187 30.38L22.7987 30.385V30.985C22.722 31.0083 22.642 31.0267 22.5587 31.04C22.4753 31.0567 22.4003 31.065 22.3337 31.065ZM26.5019 31V23.77H28.8269C29.7069 23.77 30.3719 23.9317 30.8219 24.255C31.2752 24.5783 31.5019 25.045 31.5019 25.655C31.5019 26.0383 31.4019 26.3667 31.2019 26.64C31.0052 26.9133 30.6585 27.1383 30.1619 27.315C30.4452 27.375 30.6835 27.4617 30.8769 27.575C31.0735 27.6883 31.2302 27.8217 31.3469 27.975C31.4669 28.125 31.5519 28.2917 31.6019 28.475C31.6552 28.6583 31.6819 28.8517 31.6819 29.055C31.6819 29.7083 31.4485 30.1967 30.9819 30.52C30.5185 30.84 29.8252 31 28.9019 31H26.5019ZM27.4269 30.23H28.8919C29.4952 30.23 29.9535 30.1317 30.2669 29.935C30.5835 29.735 30.7419 29.4283 30.7419 29.015C30.7419 28.7117 30.6635 28.4667 30.5069 28.28C30.3535 28.09 30.1452 27.9517 29.8819 27.865C29.6185 27.7783 29.3252 27.735 29.0019 27.735H27.4269V30.23ZM27.4269 26.95H29.0019C29.1919 26.95 29.3802 26.9317 29.5669 26.895C29.7535 26.8583 29.9252 26.795 30.0819 26.705C30.2385 26.615 30.3652 26.495 30.4619 26.345C30.5585 26.1917 30.6069 26 30.6069 25.77C30.6069 25.35 30.4452 25.04 30.1219 24.84C29.8019 24.6367 29.3852 24.535 28.8719 24.535H27.4269V26.95ZM34.4509 31.1C34.1175 31.1 33.8225 31.0417 33.5659 30.925C33.3092 30.805 33.1075 30.6333 32.9609 30.41C32.8175 30.1867 32.7459 29.9167 32.7459 29.6C32.7459 29.0267 32.9459 28.6 33.3459 28.32C33.7459 28.04 34.3875 27.89 35.2709 27.87L36.1959 27.845V27.44C36.1959 27.1233 36.1009 26.8733 35.9109 26.69C35.7209 26.5033 35.4259 26.41 35.0259 26.41C34.7292 26.4133 34.4675 26.4833 34.2409 26.62C34.0175 26.7567 33.8725 26.98 33.8059 27.29H32.9909C33.0109 26.9533 33.1059 26.67 33.2759 26.44C33.4459 26.2067 33.6825 26.03 33.9859 25.91C34.2925 25.79 34.6542 25.73 35.0709 25.73C35.5209 25.73 35.8942 25.7933 36.1909 25.92C36.4909 26.0467 36.7142 26.2333 36.8609 26.48C37.0109 26.7267 37.0859 27.03 37.0859 27.39V31H36.2959L36.2309 30.03C36.0309 30.4333 35.7759 30.7133 35.4659 30.87C35.1592 31.0233 34.8209 31.1 34.4509 31.1ZM34.7309 30.435C34.9042 30.435 35.0759 30.4033 35.2459 30.34C35.4192 30.2767 35.5775 30.1917 35.7209 30.085C35.8642 29.975 35.9775 29.8533 36.0609 29.72C36.1475 29.5833 36.1925 29.4433 36.1959 29.3V28.415L35.4259 28.43C35.0325 28.4367 34.7025 28.4767 34.4359 28.55C34.1725 28.6233 33.9742 28.7383 33.8409 28.895C33.7109 29.0517 33.6459 29.2567 33.6459 29.51C33.6459 29.8 33.7459 30.0267 33.9459 30.19C34.1492 30.3533 34.4109 30.435 34.7309 30.435ZM39.9704 31.065C39.6904 31.065 39.4637 31.0267 39.2904 30.95C39.1204 30.8733 38.9887 30.77 38.8954 30.64C38.8054 30.51 38.7437 30.3617 38.7104 30.195C38.6804 30.025 38.6654 29.85 38.6654 29.67V23.57H39.5754V29.58C39.5754 29.84 39.6254 30.035 39.7254 30.165C39.8287 30.295 39.9721 30.3667 40.1554 30.38L40.4354 30.385V30.985C40.3587 31.0083 40.2787 31.0267 40.1954 31.04C40.1121 31.0567 40.0371 31.065 39.9704 31.065ZM43.0251 31.1C42.6917 31.1 42.3967 31.0417 42.1401 30.925C41.8834 30.805 41.6817 30.6333 41.5351 30.41C41.3917 30.1867 41.3201 29.9167 41.3201 29.6C41.3201 29.0267 41.5201 28.6 41.9201 28.32C42.3201 28.04 42.9617 27.89 43.8451 27.87L44.7701 27.845V27.44C44.7701 27.1233 44.6751 26.8733 44.4851 26.69C44.2951 26.5033 44.0001 26.41 43.6001 26.41C43.3034 26.4133 43.0417 26.4833 42.8151 26.62C42.5917 26.7567 42.4467 26.98 42.3801 27.29H41.5651C41.5851 26.9533 41.6801 26.67 41.8501 26.44C42.0201 26.2067 42.2567 26.03 42.5601 25.91C42.8667 25.79 43.2284 25.73 43.6451 25.73C44.0951 25.73 44.4684 25.7933 44.7651 25.92C45.0651 26.0467 45.2884 26.2333 45.4351 26.48C45.5851 26.7267 45.6601 27.03 45.6601 27.39V31H44.8701L44.8051 30.03C44.6051 30.4333 44.3501 30.7133 44.0401 30.87C43.7334 31.0233 43.3951 31.1 43.0251 31.1ZM43.3051 30.435C43.4784 30.435 43.6501 30.4033 43.8201 30.34C43.9934 30.2767 44.1517 30.1917 44.2951 30.085C44.4384 29.975 44.5517 29.8533 44.6351 29.72C44.7217 29.5833 44.7667 29.4433 44.7701 29.3V28.415L44.0001 28.43C43.6067 28.4367 43.2767 28.4767 43.0101 28.55C42.7467 28.6233 42.5484 28.7383 42.4151 28.895C42.2851 29.0517 42.2201 29.2567 42.2201 29.51C42.2201 29.8 42.3201 30.0267 42.5201 30.19C42.7234 30.3533 42.9851 30.435 43.3051 30.435ZM47.2396 31V25.83H48.1346V26.58C48.2179 26.4367 48.3329 26.3017 48.4796 26.175C48.6296 26.0483 48.8096 25.9467 49.0196 25.87C49.2329 25.7933 49.4779 25.755 49.7546 25.755C50.0813 25.755 50.3813 25.82 50.6546 25.95C50.9313 26.08 51.1513 26.2833 51.3146 26.56C51.4813 26.8333 51.5646 27.1867 51.5646 27.62V31H50.6396V27.71C50.6396 27.3067 50.5329 27.0083 50.3196 26.815C50.1096 26.6183 49.8363 26.52 49.4996 26.52C49.2663 26.52 49.0479 26.5583 48.8446 26.635C48.6413 26.7083 48.4763 26.8217 48.3496 26.975C48.2229 27.125 48.1596 27.315 48.1596 27.545V31H47.2396ZM55.0711 25.73C55.4411 25.73 55.7744 25.8017 56.0711 25.945C56.3678 26.085 56.6094 26.285 56.7961 26.545C56.9861 26.805 57.1044 27.1117 57.1511 27.465H56.3311C56.3011 27.285 56.2311 27.12 56.1211 26.97C56.0144 26.82 55.8728 26.7 55.6961 26.61C55.5194 26.52 55.3128 26.475 55.0761 26.475C54.6328 26.475 54.2728 26.635 53.9961 26.955C53.7194 27.275 53.5811 27.765 53.5811 28.425C53.5811 29.0217 53.7078 29.5 53.9611 29.86C54.2178 30.2167 54.5944 30.395 55.0911 30.395C55.3278 30.395 55.5328 30.35 55.7061 30.26C55.8828 30.1667 56.0244 30.045 56.1311 29.895C56.2378 29.7417 56.3061 29.5783 56.3361 29.405H57.1411C57.0978 29.7517 56.9811 30.0517 56.7911 30.305C56.6011 30.5583 56.3578 30.755 56.0611 30.895C55.7678 31.0317 55.4378 31.1 55.0711 31.1C54.6078 31.1 54.1961 30.9983 53.8361 30.795C53.4794 30.5917 53.1994 30.2917 52.9961 29.895C52.7928 29.4983 52.6911 29.0117 52.6911 28.435C52.6911 27.895 52.7828 27.4233 52.9661 27.02C53.1528 26.6133 53.4228 26.2967 53.7761 26.07C54.1328 25.8433 54.5644 25.73 55.0711 25.73ZM59.0617 28.63C59.0617 28.9567 59.1151 29.2533 59.2217 29.52C59.3317 29.7833 59.4967 29.9933 59.7167 30.15C59.9401 30.3067 60.2184 30.385 60.5517 30.385C60.8817 30.385 61.1651 30.3083 61.4017 30.155C61.6417 30.0017 61.7951 29.78 61.8617 29.49H62.7367C62.6734 29.84 62.5334 30.135 62.3167 30.375C62.1001 30.615 61.8384 30.7967 61.5317 30.92C61.2251 31.04 60.9051 31.1 60.5717 31.1C60.0884 31.1 59.6634 30.995 59.2967 30.785C58.9301 30.575 58.6434 30.2733 58.4367 29.88C58.2301 29.4867 58.1267 29.015 58.1267 28.465C58.1267 27.9217 58.2201 27.445 58.4067 27.035C58.5934 26.625 58.8634 26.305 59.2167 26.075C59.5734 25.845 60.0017 25.73 60.5017 25.73C60.9884 25.73 61.4001 25.835 61.7367 26.045C62.0734 26.255 62.3284 26.5517 62.5017 26.935C62.6784 27.315 62.7667 27.7667 62.7667 28.29V28.63H59.0617ZM59.0667 28.005H61.8767C61.8767 27.7083 61.8267 27.4417 61.7267 27.205C61.6267 26.965 61.4734 26.7767 61.2667 26.64C61.0634 26.5 60.8067 26.43 60.4967 26.43C60.1734 26.43 59.9051 26.5083 59.6917 26.665C59.4817 26.8183 59.3234 27.0167 59.2167 27.26C59.1134 27.5 59.0634 27.7483 59.0667 28.005Z" fill="#575D5E"/>
<rect y="61" width="96" height="2" rx="1" fill="#EAEAEA"/>
<rect y="61" width="40" height="2" rx="1" fill="#83A17D"/>
<path d="M3.805 47.77H4.88V52.295H6.055V53.22H4.88V55H3.84V53.22H0.455V52.28L3.805 47.77ZM1.465 52.295H3.825V49.13L1.465 52.295ZM9.46742 47.67C10.2708 47.67 10.9091 47.9867 11.3824 48.62C11.8591 49.25 12.0974 50.1767 12.0974 51.4C12.0974 52.6167 11.8608 53.54 11.3874 54.17C10.9174 54.7967 10.2758 55.11 9.46242 55.11C8.64576 55.11 8.00242 54.7983 7.53242 54.175C7.06242 53.5483 6.82742 52.6267 6.82742 51.41C6.82742 50.5933 6.93576 49.9083 7.15242 49.355C7.36909 48.7983 7.67409 48.3783 8.06742 48.095C8.46409 47.8117 8.93076 47.67 9.46742 47.67ZM9.46742 54.2C9.96076 54.2 10.3308 53.9833 10.5774 53.55C10.8241 53.1133 10.9474 52.3983 10.9474 51.405C10.9474 50.3917 10.8224 49.6633 10.5724 49.22C10.3224 48.7733 9.95242 48.55 9.46242 48.55C8.97576 48.55 8.60409 48.775 8.34742 49.225C8.09076 49.6717 7.96242 50.3983 7.96242 51.405C7.96242 52.395 8.08909 53.1083 8.34242 53.545C8.59909 53.9817 8.97409 54.2 9.46742 54.2ZM14.8284 47.66C15.1584 47.66 15.4534 47.7467 15.7134 47.92C15.9767 48.0933 16.1834 48.3367 16.3334 48.65C16.4834 48.96 16.5584 49.32 16.5584 49.73C16.5584 50.14 16.4834 50.4983 16.3334 50.805C16.1867 51.1117 15.9817 51.3517 15.7184 51.525C15.4584 51.695 15.1617 51.78 14.8284 51.78C14.495 51.78 14.1967 51.695 13.9334 51.525C13.67 51.3517 13.4617 51.1117 13.3084 50.805C13.1584 50.4983 13.0834 50.14 13.0834 49.73C13.0834 49.32 13.16 48.96 13.3134 48.65C13.4667 48.3367 13.675 48.0933 13.9384 47.92C14.2017 47.7467 14.4984 47.66 14.8284 47.66ZM14.8184 51.2C15.125 51.2 15.3567 51.0667 15.5134 50.8C15.67 50.5333 15.7484 50.1767 15.7484 49.73C15.7484 49.2767 15.6684 48.915 15.5084 48.645C15.3484 48.3717 15.1184 48.235 14.8184 48.235C14.6184 48.235 14.45 48.2983 14.3134 48.425C14.1767 48.5483 14.0717 48.7233 13.9984 48.95C13.925 49.1733 13.8884 49.4333 13.8884 49.73C13.8884 50.1733 13.9684 50.53 14.1284 50.8C14.2884 51.0667 14.5184 51.2 14.8184 51.2ZM19.4134 50.97C19.7467 50.97 20.0434 51.0583 20.3034 51.235C20.5667 51.4117 20.7734 51.655 20.9234 51.965C21.0734 52.275 21.1484 52.6333 21.1484 53.04C21.1484 53.4533 21.0734 53.815 20.9234 54.125C20.7767 54.4317 20.5717 54.6717 20.3084 54.845C20.0484 55.015 19.75 55.1 19.4134 55.1C19.08 55.1 18.78 55.015 18.5134 54.845C18.25 54.6717 18.0434 54.4317 17.8934 54.125C17.7434 53.815 17.6684 53.4533 17.6684 53.04C17.6684 52.6333 17.7434 52.275 17.8934 51.965C18.0467 51.655 18.255 51.4117 18.5184 51.235C18.785 51.0583 19.0834 50.97 19.4134 50.97ZM19.4034 54.51C19.6 54.51 19.7684 54.4483 19.9084 54.325C20.0484 54.2017 20.155 54.0317 20.2284 53.815C20.3017 53.595 20.3384 53.34 20.3384 53.05C20.3384 52.7533 20.3 52.4933 20.2234 52.27C20.15 52.0467 20.0434 51.8717 19.9034 51.745C19.7667 51.6183 19.6 51.555 19.4034 51.555C19.21 51.555 19.0434 51.6183 18.9034 51.745C18.7667 51.8717 18.6617 52.0483 18.5884 52.275C18.515 52.4983 18.4784 52.7567 18.4784 53.05C18.4784 53.34 18.515 53.595 18.5884 53.815C18.6617 54.0317 18.7667 54.2017 18.9034 54.325C19.0434 54.4483 19.21 54.51 19.4034 54.51ZM19.8284 47.69L14.9684 55.04L14.2784 55.03L19.1584 47.69H19.8284Z" fill="#152427"/>
<path d="M57.92 69.77H59.005V76.06H62.345V77H57.915L57.92 69.77ZM65.4891 77.1C65.0057 77.1 64.5824 76.9967 64.2191 76.79C63.8591 76.58 63.5791 76.2767 63.3791 75.88C63.1824 75.4833 63.0841 75.0033 63.0841 74.44C63.0841 73.8967 63.1774 73.4217 63.3641 73.015C63.5541 72.6083 63.8291 72.2933 64.1891 72.07C64.5491 71.8433 64.9841 71.73 65.4941 71.73C65.9807 71.73 66.4024 71.8367 66.7591 72.05C67.1157 72.26 67.3924 72.5683 67.5891 72.975C67.7857 73.3783 67.8841 73.8667 67.8841 74.44C67.8841 74.9633 67.7907 75.425 67.6041 75.825C67.4207 76.225 67.1507 76.5383 66.7941 76.765C66.4407 76.9883 66.0057 77.1 65.4891 77.1ZM65.4941 76.275C65.7874 76.275 66.0324 76.1983 66.2291 76.045C66.4291 75.8883 66.5791 75.67 66.6791 75.39C66.7791 75.1067 66.8291 74.78 66.8291 74.41C66.8291 74.0667 66.7841 73.755 66.6941 73.475C66.6074 73.1917 66.4657 72.9667 66.2691 72.8C66.0724 72.6333 65.8141 72.55 65.4941 72.55C65.1941 72.55 64.9441 72.6267 64.7441 72.78C64.5441 72.93 64.3924 73.145 64.2891 73.425C64.1891 73.7017 64.1391 74.03 64.1391 74.41C64.1391 74.7467 64.1841 75.0567 64.2741 75.34C64.3641 75.6233 64.5091 75.85 64.7091 76.02C64.9091 76.19 65.1707 76.275 65.4941 76.275ZM70.9186 77.1C70.2386 77.1 69.7036 76.8683 69.3136 76.405C68.9236 75.9383 68.7286 75.2667 68.7286 74.39C68.7286 73.8533 68.8069 73.3867 68.9636 72.99C69.1203 72.59 69.3536 72.28 69.6636 72.06C69.9769 71.84 70.3636 71.73 70.8236 71.73C71.0569 71.73 71.2636 71.7583 71.4436 71.815C71.6269 71.8717 71.7869 71.945 71.9236 72.035C72.0636 72.125 72.1786 72.2217 72.2686 72.325C72.3619 72.4283 72.4336 72.525 72.4836 72.615V69.57H73.5586V77H72.7586L72.6386 75.94C72.6019 76.0533 72.5453 76.1767 72.4686 76.31C72.3919 76.4433 72.2869 76.57 72.1536 76.69C72.0236 76.81 71.8569 76.9083 71.6536 76.985C71.4503 77.0617 71.2053 77.1 70.9186 77.1ZM71.1236 76.295C71.6036 76.295 71.9503 76.145 72.1636 75.845C72.3769 75.5417 72.4836 75.045 72.4836 74.355C72.4803 73.965 72.4319 73.635 72.3386 73.365C72.2453 73.095 72.1003 72.8917 71.9036 72.755C71.7103 72.615 71.4553 72.545 71.1386 72.545C70.7419 72.545 70.4186 72.6883 70.1686 72.975C69.9186 73.2583 69.7936 73.7183 69.7936 74.355C69.7936 74.9817 69.9069 75.4617 70.1336 75.795C70.3636 76.1283 70.6936 76.295 71.1236 76.295ZM76.1988 71.83V77H75.1688V71.83H76.1988ZM76.2188 69.775V70.83H75.1438V69.775H76.2188ZM77.7934 77V71.83H78.8384V72.575C78.9217 72.435 79.0334 72.3033 79.1734 72.18C79.3167 72.0567 79.4917 71.9567 79.6984 71.88C79.9084 71.8033 80.15 71.765 80.4234 71.765C80.7467 71.765 81.045 71.83 81.3184 71.96C81.595 72.0867 81.8167 72.2867 81.9834 72.56C82.15 72.83 82.2334 73.18 82.2334 73.61V77H81.1634V73.725C81.1634 73.355 81.0634 73.08 80.8634 72.9C80.6667 72.72 80.4117 72.63 80.0984 72.63C79.8884 72.63 79.6884 72.665 79.4984 72.735C79.3084 72.805 79.155 72.9117 79.0384 73.055C78.9217 73.195 78.8634 73.3717 78.8634 73.585V77H77.7934ZM85.8439 78.71C85.0039 78.71 84.3539 78.5917 83.8939 78.355C83.4339 78.1217 83.2039 77.795 83.2039 77.375C83.2039 77.1917 83.2472 77.0367 83.3339 76.91C83.4239 76.78 83.5289 76.6733 83.6489 76.59C83.7722 76.5067 83.8856 76.4417 83.9889 76.395C84.0922 76.345 84.1589 76.31 84.1889 76.29C84.1322 76.2567 84.0589 76.215 83.9689 76.165C83.8822 76.1117 83.8039 76.0417 83.7339 75.955C83.6639 75.865 83.6289 75.7483 83.6289 75.605C83.6289 75.4383 83.7072 75.285 83.8639 75.145C84.0239 75.0017 84.2622 74.8967 84.5789 74.83C84.2656 74.6767 84.0222 74.47 83.8489 74.21C83.6789 73.95 83.5939 73.6733 83.5939 73.38C83.5939 73.0433 83.6889 72.7533 83.8789 72.51C84.0689 72.2633 84.3356 72.075 84.6789 71.945C85.0256 71.815 85.4322 71.75 85.8989 71.75C86.2389 71.75 86.5239 71.7883 86.7539 71.865C86.9839 71.9417 87.1956 72.0483 87.3889 72.185C87.4522 72.1617 87.5422 72.1267 87.6589 72.08C87.7756 72.03 87.9039 71.9767 88.0439 71.92C88.1872 71.8633 88.3222 71.8083 88.4489 71.755C88.5789 71.7017 88.6839 71.6583 88.7639 71.625L88.7589 72.555L87.8589 72.72C87.9056 72.82 87.9422 72.93 87.9689 73.05C87.9989 73.17 88.0139 73.28 88.0139 73.38C88.0139 73.68 87.9322 73.9567 87.7689 74.21C87.6056 74.46 87.3606 74.66 87.0339 74.81C86.7072 74.96 86.2989 75.035 85.8089 75.035C85.7622 75.035 85.7022 75.035 85.6289 75.035C85.5556 75.0317 85.4939 75.0267 85.4439 75.02C85.1339 75.03 84.9206 75.0667 84.8039 75.13C84.6872 75.19 84.6289 75.2567 84.6289 75.33C84.6289 75.4233 84.7039 75.4867 84.8539 75.52C85.0039 75.5533 85.2506 75.5817 85.5939 75.605C85.7172 75.615 85.8739 75.625 86.0639 75.635C86.2572 75.645 86.4706 75.6583 86.7039 75.675C87.2706 75.7083 87.7022 75.85 87.9989 76.1C88.2989 76.35 88.4489 76.6817 88.4489 77.095C88.4489 77.5683 88.2339 77.955 87.8039 78.255C87.3739 78.5583 86.7206 78.71 85.8439 78.71ZM86.0289 78.055C86.4856 78.055 86.8289 77.9883 87.0589 77.855C87.2922 77.725 87.4089 77.53 87.4089 77.27C87.4089 77.0767 87.3339 76.9183 87.1839 76.795C87.0339 76.6717 86.8106 76.6 86.5139 76.58L85.1339 76.49C84.9972 76.4833 84.8606 76.5133 84.7239 76.58C84.5906 76.6467 84.4789 76.74 84.3889 76.86C84.3022 76.9767 84.2589 77.1067 84.2589 77.25C84.2589 77.51 84.4022 77.7083 84.6889 77.845C84.9789 77.985 85.4256 78.055 86.0289 78.055ZM85.8389 74.38C86.1856 74.38 86.4639 74.2967 86.6739 74.13C86.8872 73.96 86.9939 73.7167 86.9939 73.4C86.9939 73.0733 86.8872 72.8217 86.6739 72.645C86.4639 72.465 86.1856 72.375 85.8389 72.375C85.4889 72.375 85.2056 72.465 84.9889 72.645C84.7756 72.825 84.6689 73.0767 84.6689 73.4C84.6689 73.7067 84.7706 73.9467 84.9739 74.12C85.1806 74.2933 85.4689 74.38 85.8389 74.38ZM89.6444 77V75.71H90.8794V77H89.6444ZM92.4862 77V75.71H93.7212V77H92.4862ZM95.328 77V75.71H96.563V77H95.328Z" fill="#152427"/>
</svg>
